<?xml version="1.0" encoding="UTF-8" standalone="no"?>
<svg width="46px" height="45px" viewBox="0 0 46 45" version="1.1" xmlns="http://www.w3.org/2000/svg" xmlns:xlink="http://www.w3.org/1999/xlink" xmlns:sketch="http://www.bohemiancoding.com/sketch/ns">
    <!-- Generator: Sketch 3.3.3 (12081) - http://www.bohemiancoding.com/sketch -->
    <title>icn_share</title>
    <desc>Created with Sketch.</desc>
    <defs></defs>
    <g id="articles" stroke="none" stroke-width="1" fill="none" fill-rule="evenodd" sketch:type="MSPage">
        <g id="article_intro_ratio-copy" sketch:type="MSArtboardGroup" transform="translate(-259.000000, -471.000000)">
            <g id="Social-Component-Copy-3" sketch:type="MSLayerGroup" transform="translate(260.000000, 472.000000)">
                <g id="icn_share" sketch:type="MSShapeGroup">
                    <path d="M22.2436829,43.0851064 C34.5285297,43.0851064 44.4873657,33.4401768 44.4873657,21.5425532 C44.4873657,9.64492959 34.5285297,0 22.2436829,0 C9.95883604,0 0,9.64492959 0,21.5425532 C0,33.4401768 9.95883604,43.0851064 22.2436829,43.0851064 Z" id="Oval-2" stroke="#000000"></path>
                    <path d="M24.3086459,21.597952 L24.3086459,26.4405527 L32.9989657,18.9352765 L24.3086459,11.4300003 L24.3086459,15.2510568 C23.5433411,15.3438225 21.6346254,15.861323 17.2479541,18.2202771 C10.8609039,21.6549448 11.0002436,31 11.0002436,31 C11.0002436,31 11.5421552,25.985388 19.3825367,22.8186858 C22.3954147,21.601795 23.7235015,21.4782644 24.3086459,21.597952 Z" id="Triangle-1" fill="#1C1C1C"></path>
                </g>
            </g>
        </g>
    </g>
</svg>