<?xml version="1.0" encoding="UTF-8" standalone="no"?>
<svg width="14px" height="14px" viewBox="0 0 14 14" version="1.1" xmlns="http://www.w3.org/2000/svg" xmlns:xlink="http://www.w3.org/1999/xlink" xmlns:sketch="http://www.bohemiancoding.com/sketch/ns">
    <!-- Generator: sketchtool 3.4 (375) - http://www.bohemiancoding.com/sketch -->
    <title>instagram</title>
    <desc>Created with sketchtool.</desc>
    <defs></defs>
    <g id="Nav_Exploration-5" stroke="none" stroke-width="1" fill="none" fill-rule="evenodd" sketch:type="MSPage">
        <g id="ProductReviews_Drop_1" sketch:type="MSArtboardGroup" transform="translate(-1367.000000, -61.000000)" fill="#000000">
            <g id="HEADER" sketch:type="MSLayerGroup" transform="translate(0.000000, -1.000000)">
                <g id="SOCIAL-Copy-5" transform="translate(1280.000000, 61.000000)" sketch:type="MSShapeGroup">
                    <path d="M98.2938,1 L89.7052667,1 C88.2133333,1 87,2.21333333 87,3.70526667 L87,6.5636 L87,12.2947333 C87,13.7866667 88.2133333,15 89.7052667,15 L98.2938,15 C99.7857333,15 101,13.7866667 101,12.2947333 L101,6.5636 L101,3.70526667 C101,2.21333333 99.7857333,1 98.2938,1 L98.2938,1 Z M99.0703333,2.6142 L99.3792667,2.61233333 L99.3792667,2.92126667 L99.3792667,4.98486667 L97.0151333,4.9928 L97.0067333,2.62026667 L99.0703333,2.6142 L99.0703333,2.6142 Z M92.0022,6.5636 C92.4506667,5.94293333 93.1777333,5.53646667 94,5.53646667 C94.8222667,5.53646667 95.5493333,5.94293333 95.9978,6.5636 C96.2894667,6.9682 96.4644667,7.46426667 96.4644667,8 C96.4644667,9.358 95.358,10.4635333 94,10.4635333 C92.6410667,10.4635333 91.5355333,9.358 91.5355333,8 C91.5355333,7.46426667 91.7105333,6.9682 92.0022,6.5636 L92.0022,6.5636 Z M98.2938,13.6364 L89.7052667,13.6364 C88.9651333,13.6364 88.3636,13.0348667 88.3636,12.2947333 L88.3636,6.5636 L90.4533333,6.5636 C90.2727333,7.0074 90.1719333,7.49226667 90.1719333,8 C90.1719333,10.1107333 91.8892667,11.8280667 94,11.8280667 C96.1107333,11.8280667 97.8280667,10.1107333 97.8280667,8 C97.8280667,7.49226667 97.7258667,7.0074 97.5457333,6.5636 L99.6364,6.5636 L99.6364,12.2947333 C99.6364,13.0348667 99.0339333,13.6364 98.2938,13.6364 Z" id="instagram"></path>
                </g>
            </g>
        </g>
    </g>
</svg>