<?xml version="1.0" encoding="UTF-8" standalone="no"?>
<svg width="10px" height="13px" viewBox="0 0 10 13" version="1.1" xmlns="http://www.w3.org/2000/svg" xmlns:xlink="http://www.w3.org/1999/xlink" xmlns:sketch="http://www.bohemiancoding.com/sketch/ns">
    <!-- Generator: sketchtool 3.4 (375) - http://www.bohemiancoding.com/sketch -->
    <title>Pinterest</title>
    <desc>Created with sketchtool.</desc>
    <defs></defs>
    <g id="Nav_Exploration-5" stroke="none" stroke-width="1" fill="none" fill-rule="evenodd" sketch:type="MSPage">
        <g id="ProductReviews_Drop_1" sketch:type="MSArtboardGroup" transform="translate(-1400.000000, -97.000000)" fill="#000000">
            <g id="HEADER" sketch:type="MSLayerGroup" transform="translate(0.000000, -1.000000)">
                <g id="SOCIAL-Copy-5" transform="translate(1280.000000, 61.000000)" sketch:type="MSShapeGroup">
                    <path d="M122.092681,49.9175041 C122.104056,50.0063393 122.214967,50.0275731 122.264938,49.9608383 C122.336441,49.8650697 123.257854,48.6902784 123.571086,47.5172205 C123.659652,47.1844135 124.079326,45.4649108 124.079326,45.4649108 C124.331212,45.9602212 125.065742,46.3948636 125.846994,46.3948636 C128.172466,46.3948636 129.75,44.2069177 129.75,41.277523 C129.75,39.0627099 127.931955,37 125.169747,37 C121.733541,37.0004333 120,39.54372 120,41.6644978 C120,42.9484914 120.47127,44.0912153 121.480843,44.5176242 C121.647412,44.586959 121.7957,44.5202243 121.843233,44.3304203 C121.876953,44.1991176 121.955769,43.869344 121.99152,43.7302411 C122.039054,43.5430372 122.021178,43.4780358 121.887516,43.3146657 C121.59541,42.9601916 121.40934,42.5004153 121.40934,41.8504017 C121.40934,39.9631954 122.778053,38.2735934 124.971488,38.2735934 C126.913851,38.2735934 127.98152,39.4990857 127.98152,41.1349533 C127.98152,43.2882318 127.058075,45.1052366 125.688956,45.1052366 C124.931268,45.1052366 124.364526,44.4595564 124.545721,43.6674064 C124.763886,42.7209866 125.185185,41.7004652 125.185185,41.0175175 C125.185185,40.4065047 124.867078,39.8968941 124.209332,39.8968941 C123.435393,39.8968941 122.813805,40.7228447 122.813805,41.8291679 C122.813805,42.534216 123.044971,43.011326 123.044971,43.011326 C123.044971,43.011326 122.25275,46.4728652 122.114213,47.079978 C121.838358,48.2881366 122.072774,49.7684343 122.092681,49.9175041 L122.092681,49.9175041 Z" id="Pinterest"></path>
                </g>
            </g>
        </g>
    </g>
</svg>