<?xml version="1.0" encoding="UTF-8" standalone="no"?>
<svg width="17px" height="13px" viewBox="0 0 17 13" version="1.1" xmlns="http://www.w3.org/2000/svg" xmlns:xlink="http://www.w3.org/1999/xlink" xmlns:sketch="http://www.bohemiancoding.com/sketch/ns">
    <!-- Generator: sketchtool 3.4 (375) - http://www.bohemiancoding.com/sketch -->
    <title>Twitter</title>
    <desc>Created with sketchtool.</desc>
    <defs></defs>
    <g id="Nav_Exploration-5" stroke="none" stroke-width="1" fill="none" fill-rule="evenodd" sketch:type="MSPage">
        <g id="ProductReviews_Drop_1" sketch:type="MSArtboardGroup" transform="translate(-1303.000000, -61.000000)" fill="#000000">
            <g id="HEADER" sketch:type="MSLayerGroup" transform="translate(0.000000, -1.000000)">
                <g id="SOCIAL-Copy-5" transform="translate(1280.000000, 61.000000)" sketch:type="MSShapeGroup">
                    <path d="M39.5308313,1.23941667 C38.8571095,1.615875 38.109726,1.88941667 37.3153123,2.03675 C36.6801213,1.39866667 35.7735151,1 34.7700153,1 C32.8446104,1 31.2829811,2.46954167 31.2829811,4.28195833 C31.2829811,4.53925 31.3141457,4.78895833 31.3725085,5.02945833 C28.4742017,4.89241667 25.9045397,3.58591667 24.1842544,1.60070833 C23.8845077,2.08495833 23.7116859,2.64883333 23.7116859,3.250625 C23.7116859,4.38866667 24.3287448,5.39345833 25.2636824,5.98170833 C24.6925205,5.964375 24.1542231,5.81704167 23.6839211,5.57166667 L23.6839211,5.61283333 C23.6839211,7.202625 24.8863076,8.52916667 26.4819345,8.83141667 C26.1889874,8.90616667 25.8813079,8.94625 25.5622958,8.94625 C25.3379108,8.94625 25.1197587,8.92566667 24.9061396,8.88720833 C25.3509433,10.1904583 26.6383241,11.14 28.1642557,11.1665417 C26.9703686,12.04675 25.4671022,12.571625 23.8323778,12.571625 C23.5501967,12.571625 23.2736818,12.5559167 23,12.5255833 C24.5440637,13.4567083 26.3782415,14 28.3467102,14 C34.7620825,14 38.2695154,8.999875 38.2695154,4.66275 C38.2695154,4.52083333 38.2672489,4.378375 38.2604493,4.23808333 C38.9409706,3.7755 39.5330978,3.19754167 40,2.538875 C39.3750083,2.8005 38.7029865,2.976 37.9969669,3.055625 C38.7177188,2.649375 39.2696154,2.00641667 39.5308313,1.23941667 L39.5308313,1.23941667 Z" id="Twitter"></path>
                </g>
            </g>
        </g>
    </g>
</svg>