<?xml version="1.0" encoding="UTF-8" standalone="no"?>
<svg width="18px" height="13px" viewBox="0 0 18 13" version="1.1" xmlns="http://www.w3.org/2000/svg" xmlns:xlink="http://www.w3.org/1999/xlink" xmlns:sketch="http://www.bohemiancoding.com/sketch/ns">
    <!-- Generator: sketchtool 3.4 (375) - http://www.bohemiancoding.com/sketch -->
    <title>YouTube</title>
    <desc>Created with sketchtool.</desc>
    <defs></defs>
    <g id="Nav_Exploration-5" stroke="none" stroke-width="1" fill="none" fill-rule="evenodd" sketch:type="MSPage">
        <g id="ProductReviews_Drop_1" sketch:type="MSArtboardGroup" transform="translate(-1334.000000, -61.000000)" fill="#000000">
            <g id="HEADER" sketch:type="MSLayerGroup" transform="translate(0.000000, -1.000000)">
                <g id="SOCIAL-Copy-5" transform="translate(1280.000000, 61.000000)" sketch:type="MSShapeGroup">
                    <path d="M71.8194,3.80386364 C71.8194,3.80386364 71.6436,2.52927273 71.1048,1.9685 C70.4202,1.23340909 69.6528,1.22868182 69.3024,1.18613636 C66.7818,1 63.0048,1 63.0048,1 L62.9964,1 C62.9964,1 59.217,1 56.6988,1.18672727 C56.3472,1.22868182 55.581,1.23340909 54.8952,1.96909091 C54.3564,2.52986364 54.1806,3.80445455 54.1806,3.80445455 C54.1806,3.80445455 54,5.29945455 54,6.79563636 L54,8.19727273 C54,9.69404545 54.1806,11.1902273 54.1806,11.1902273 C54.1806,11.1902273 54.3564,12.4636364 54.8952,13.0244091 C55.581,13.7606818 56.481,13.7370455 56.8806,13.8138636 C58.3206,13.9556818 63,14 63,14 C63,14 66.7818,13.9929091 69.3024,13.8073636 C69.6528,13.7642273 70.4202,13.7606818 71.1048,13.0238182 C71.6436,12.4630455 71.8194,11.1896364 71.8194,11.1896364 C71.8194,11.1896364 72,9.69404545 72,8.19727273 L72,6.79563636 C72,5.29945455 71.8194,3.80386364 71.8194,3.80386364 L71.8194,3.80386364 Z M60.50113,10.2239352 L60.5,5.33333333 L65.0793775,7.78781565 L60.50113,10.2239352 L60.50113,10.2239352 Z" id="YouTube"></path>
                </g>
            </g>
        </g>
    </g>
</svg>